# Blender v3.0.0 OBJ File: ''
# www.blender.org
mtllib new_round_column_base.mtl
o Cube
v 0.500000 0.000000 -0.500000
v 0.500000 -0.500000 -0.500000
v 0.500000 0.000000 0.500000
v 0.500000 -0.500000 0.500000
v -0.500000 0.000000 -0.500000
v -0.500000 -0.500000 -0.500000
v -0.500000 0.000000 0.500000
v -0.500000 -0.500000 0.500000
vt 0.625000 0.500000
vt 0.875000 0.500000
vt 0.875000 0.750000
vt 0.625000 0.750000
vt 0.375000 0.750000
vt 0.625000 1.000000
vt 0.375000 1.000000
vt 0.375000 0.000000
vt 0.625000 0.000000
vt 0.625000 0.250000
vt 0.375000 0.250000
vt 0.125000 0.500000
vt 0.375000 0.500000
vt 0.125000 0.750000
vn 0.0000 1.0000 0.0000
vn 0.0000 0.0000 1.0000
vn -1.0000 0.0000 0.0000
vn 0.0000 -1.0000 0.0000
vn 1.0000 0.0000 0.0000
vn 0.0000 0.0000 -1.0000
usemtl Material
s off
f 1/1/1 5/2/1 7/3/1 3/4/1
f 4/5/2 3/4/2 7/6/2 8/7/2
f 8/8/3 7/9/3 5/10/3 6/11/3
f 6/12/4 2/13/4 4/5/4 8/14/4
f 2/13/5 1/1/5 3/4/5 4/5/5
f 6/11/6 5/10/6 1/1/6 2/13/6
o Cylinder
v 0.000000 0.250000 -0.375000
v 0.000000 0.500000 -0.375000
v 0.187500 0.250000 -0.324760
v 0.187500 0.500000 -0.324760
v 0.324760 0.250000 -0.187500
v 0.324760 0.500000 -0.187500
v 0.375000 0.250000 0.000000
v 0.375000 0.500000 0.000000
v 0.324760 0.250000 0.187500
v 0.324760 0.500000 0.187500
v 0.187500 0.250000 0.324760
v 0.187500 0.500000 0.324760
v -0.000000 0.250000 0.375000
v -0.000000 0.500000 0.375000
v -0.187500 0.250000 0.324760
v -0.187500 0.500000 0.324760
v -0.324760 0.250000 0.187500
v -0.324760 0.500000 0.187500
v -0.375000 0.250000 -0.000000
v -0.375000 0.500000 -0.000000
v -0.324760 0.250000 -0.187500
v -0.324760 0.500000 -0.187500
v -0.187500 0.250000 -0.324759
v -0.187500 0.500000 -0.324759
vt 1.000000 0.500000
vt 1.000000 1.000000
vt 0.916667 1.000000
vt 0.916667 0.500000
vt 0.833333 1.000000
vt 0.833333 0.500000
vt 0.750000 1.000000
vt 0.750000 0.500000
vt 0.666667 1.000000
vt 0.666667 0.500000
vt 0.583333 1.000000
vt 0.583333 0.500000
vt 0.500000 1.000000
vt 0.500000 0.500000
vt 0.416667 1.000000
vt 0.416667 0.500000
vt 0.333333 1.000000
vt 0.333333 0.500000
vt 0.250000 1.000000
vt 0.250000 0.500000
vt 0.166667 1.000000
vt 0.166667 0.500000
vt 0.370000 0.457846
vt 0.250000 0.490000
vt 0.130000 0.457846
vt 0.042154 0.370000
vt 0.010000 0.250000
vt 0.042154 0.130000
vt 0.130000 0.042154
vt 0.250000 0.010000
vt 0.370000 0.042154
vt 0.457846 0.130000
vt 0.490000 0.250000
vt 0.457846 0.370000
vt 0.083333 1.000000
vt 0.083333 0.500000
vt 0.000000 1.000000
vt 0.000000 0.500000
vt 0.750000 0.490000
vt 0.870000 0.457846
vt 0.957846 0.370000
vt 0.990000 0.250000
vt 0.957846 0.130000
vt 0.870000 0.042154
vt 0.750000 0.010000
vt 0.630000 0.042154
vt 0.542154 0.130000
vt 0.510000 0.250000
vt 0.542154 0.370000
vt 0.630000 0.457846
vn 0.2588 0.0000 -0.9659
vn 0.7071 0.0000 -0.7071
vn 0.9659 0.0000 -0.2588
vn 0.9659 0.0000 0.2588
vn 0.7071 0.0000 0.7071
vn 0.2588 0.0000 0.9659
vn -0.2588 0.0000 0.9659
vn -0.7071 0.0000 0.7071
vn -0.9659 0.0000 0.2588
vn -0.9659 0.0000 -0.2588
vn 0.0000 1.0000 0.0000
vn -0.7071 0.0000 -0.7071
vn -0.2588 0.0000 -0.9659
vn 0.0000 -1.0000 -0.0000
usemtl None
s off
f 9/15/7 10/16/7 12/17/7 11/18/7
f 11/18/8 12/17/8 14/19/8 13/20/8
f 13/20/9 14/19/9 16/21/9 15/22/9
f 15/22/10 16/21/10 18/23/10 17/24/10
f 17/24/11 18/23/11 20/25/11 19/26/11
f 19/26/12 20/25/12 22/27/12 21/28/12
f 21/28/13 22/27/13 24/29/13 23/30/13
f 23/30/14 24/29/14 26/31/14 25/32/14
f 25/32/15 26/31/15 28/33/15 27/34/15
f 27/34/16 28/33/16 30/35/16 29/36/16
f 12/37/17 10/38/17 32/39/17 30/40/17 28/41/17 26/42/17 24/43/17 22/44/17 20/45/17 18/46/17 16/47/17 14/48/17
f 29/36/18 30/35/18 32/49/18 31/50/18
f 31/50/19 32/49/19 10/51/19 9/52/19
f 9/53/20 11/54/20 13/55/20 15/56/20 17/57/20 19/58/20 21/59/20 23/60/20 25/61/20 27/62/20 29/63/20 31/64/20
o Cylinder.001
v 0.000000 0.000000 -0.500000
v 0.000000 0.250000 -0.500000
v 0.250000 0.000000 -0.433013
v 0.250000 0.250000 -0.433013
v 0.433013 0.000000 -0.250000
v 0.433013 0.250000 -0.250000
v 0.500000 0.000000 0.000000
v 0.500000 0.250000 0.000000
v 0.433013 0.000000 0.250000
v 0.433013 0.250000 0.250000
v 0.250000 0.000000 0.433013
v 0.250000 0.250000 0.433013
v -0.000000 0.000000 0.500000
v -0.000000 0.250000 0.500000
v -0.250000 0.000000 0.433013
v -0.250000 0.250000 0.433013
v -0.433013 0.000000 0.250000
v -0.433013 0.250000 0.250000
v -0.500000 0.000000 -0.000000
v -0.500000 0.250000 -0.000000
v -0.433013 0.000000 -0.250000
v -0.433013 0.250000 -0.250000
v -0.250000 0.000000 -0.433013
v -0.250000 0.250000 -0.433013
vt 1.000000 0.500000
vt 1.000000 1.000000
vt 0.916667 1.000000
vt 0.916667 0.500000
vt 0.833333 1.000000
vt 0.833333 0.500000
vt 0.750000 1.000000
vt 0.750000 0.500000
vt 0.666667 1.000000
vt 0.666667 0.500000
vt 0.583333 1.000000
vt 0.583333 0.500000
vt 0.500000 1.000000
vt 0.500000 0.500000
vt 0.416667 1.000000
vt 0.416667 0.500000
vt 0.333333 1.000000
vt 0.333333 0.500000
vt 0.250000 1.000000
vt 0.250000 0.500000
vt 0.166667 1.000000
vt 0.166667 0.500000
vt 0.370000 0.457846
vt 0.250000 0.490000
vt 0.130000 0.457846
vt 0.042154 0.370000
vt 0.010000 0.250000
vt 0.042154 0.130000
vt 0.130000 0.042154
vt 0.250000 0.010000
vt 0.370000 0.042154
vt 0.457846 0.130000
vt 0.490000 0.250000
vt 0.457846 0.370000
vt 0.083333 1.000000
vt 0.083333 0.500000
vt 0.000000 1.000000
vt 0.000000 0.500000
vt 0.750000 0.490000
vt 0.870000 0.457846
vt 0.957846 0.370000
vt 0.990000 0.250000
vt 0.957846 0.130000
vt 0.870000 0.042154
vt 0.750000 0.010000
vt 0.630000 0.042154
vt 0.542154 0.130000
vt 0.510000 0.250000
vt 0.542154 0.370000
vt 0.630000 0.457846
vn 0.2588 0.0000 -0.9659
vn 0.7071 0.0000 -0.7071
vn 0.9659 0.0000 -0.2588
vn 0.9659 0.0000 0.2588
vn 0.7071 0.0000 0.7071
vn 0.2588 0.0000 0.9659
vn -0.2588 0.0000 0.9659
vn -0.7071 0.0000 0.7071
vn -0.9659 0.0000 0.2588
vn -0.9659 0.0000 -0.2588
vn 0.0000 1.0000 0.0000
vn -0.7071 0.0000 -0.7071
vn -0.2588 0.0000 -0.9659
vn 0.0000 -1.0000 0.0000
usemtl None
s off
f 33/65/21 34/66/21 36/67/21 35/68/21
f 35/68/22 36/67/22 38/69/22 37/70/22
f 37/70/23 38/69/23 40/71/23 39/72/23
f 39/72/24 40/71/24 42/73/24 41/74/24
f 41/74/25 42/73/25 44/75/25 43/76/25
f 43/76/26 44/75/26 46/77/26 45/78/26
f 45/78/27 46/77/27 48/79/27 47/80/27
f 47/80/28 48/79/28 50/81/28 49/82/28
f 49/82/29 50/81/29 52/83/29 51/84/29
f 51/84/30 52/83/30 54/85/30 53/86/30
f 36/87/31 34/88/31 56/89/31 54/90/31 52/91/31 50/92/31 48/93/31 46/94/31 44/95/31 42/96/31 40/97/31 38/98/31
f 53/86/32 54/85/32 56/99/32 55/100/32
f 55/100/33 56/99/33 34/101/33 33/102/33
f 33/103/34 35/104/34 37/105/34 39/106/34 41/107/34 43/108/34 45/109/34 47/110/34 49/111/34 51/112/34 53/113/34 55/114/34
