# Blender v3.0.1 OBJ File: 'half_slope_ridge_high_geison.blend'
# www.blender.org
mtllib half_slope_ridge_high_geison.mtl
o Cube
v -0.250000 -0.500000 -0.500000
v -0.250000 -0.500000 -0.500000
v 0.500000 -0.500000 -0.500000
v 0.500000 -0.500000 -0.500000
v -0.250000 -0.250000 0.000000
v -0.250000 -0.500000 0.000000
v 0.500000 -0.250000 -0.000000
v 0.500000 -0.500000 -0.000000
vt 0.625000 0.500000
vt 0.875000 0.500000
vt 0.875000 0.750000
vt 0.625000 0.750000
vt 0.375000 0.750000
vt 0.625000 1.000000
vt 0.375000 1.000000
vt 0.375000 0.000000
vt 0.625000 0.000000
vt 0.625000 0.250000
vt 0.375000 0.250000
vt 0.125000 0.500000
vt 0.375000 0.500000
vt 0.125000 0.750000
vn 0.0000 0.8944 -0.4472
vn 1.0000 0.0000 0.0000
vn 0.0000 0.0000 1.0000
vn 0.0000 -1.0000 0.0000
vn -1.0000 0.0000 0.0000
usemtl Material
s off
f 1/1/1 5/2/1 7/3/1 3/4/1
f 4/5/2 3/4/2 7/6/2 8/7/2
f 8/8/3 7/9/3 5/10/3 6/11/3
f 6/12/4 2/13/4 4/5/4 8/14/4
f 2/13/3 1/1/3 3/4/3 4/5/3
f 6/11/5 5/10/5 1/1/5 2/13/5
o Cube.002_Cube.004
v -0.250000 -0.250000 0.000000
v -0.250000 -0.500000 0.000000
v 0.500000 -0.250000 -0.000000
v 0.500000 -0.500000 -0.000000
v -0.250000 -0.500000 0.500000
v -0.250000 -0.500000 0.500000
v 0.500000 -0.500000 0.500000
v 0.500000 -0.500000 0.500000
vt 0.625000 0.500000
vt 0.875000 0.500000
vt 0.875000 0.750000
vt 0.625000 0.750000
vt 0.375000 0.750000
vt 0.625000 1.000000
vt 0.375000 1.000000
vt 0.375000 0.000000
vt 0.625000 0.000000
vt 0.625000 0.250000
vt 0.375000 0.250000
vt 0.125000 0.500000
vt 0.375000 0.500000
vt 0.125000 0.750000
vn 0.0000 0.8944 0.4472
vn 1.0000 0.0000 0.0000
vn 0.0000 0.0000 1.0000
vn 0.0000 -1.0000 0.0000
vn -0.0000 0.0000 -1.0000
vn -1.0000 0.0000 0.0000
usemtl Material
s off
f 9/15/6 13/16/6 15/17/6 11/18/6
f 12/19/7 11/18/7 15/20/7 16/21/7
f 16/22/8 15/23/8 13/24/8 14/25/8
f 14/26/9 10/27/9 12/19/9 16/28/9
f 10/27/10 9/15/10 11/18/10 12/19/10
f 14/25/11 13/24/11 9/15/11 10/27/11
o Cube.003_Cube.002
v 0.500000 -0.500000 0.500000
v 0.500000 0.000000 0.500000
v -0.500000 -0.500000 0.500000
v -0.500000 0.000000 0.500000
v 0.500000 -0.250000 -0.000000
v 0.500000 0.250000 -0.000000
v -0.500000 -0.250000 0.000000
v -0.500000 0.250000 0.000000
vt 0.375000 0.000000
vt 0.625000 0.000000
vt 0.625000 0.250000
vt 0.375000 0.250000
vt 0.625000 0.500000
vt 0.375000 0.500000
vt 0.625000 0.750000
vt 0.375000 0.750000
vt 0.625000 1.000000
vt 0.375000 1.000000
vt 0.125000 0.500000
vt 0.125000 0.750000
vt 0.875000 0.500000
vt 0.875000 0.750000
vn 0.0000 0.0000 1.0000
vn -1.0000 0.0000 0.0000
vn -0.0000 0.0000 -1.0000
vn 1.0000 0.0000 0.0000
vn -0.0000 -0.8944 -0.4472
vn 0.0000 0.8944 0.4472
usemtl None
s off
f 17/29/12 18/30/12 20/31/12 19/32/12
f 19/32/13 20/31/13 24/33/13 23/34/13
f 23/34/14 24/33/14 22/35/14 21/36/14
f 21/36/15 22/35/15 18/37/15 17/38/15
f 19/39/16 23/34/16 21/36/16 17/40/16
f 24/33/17 20/41/17 18/42/17 22/35/17
o Cube.004_Cube.003
v 0.500000 -0.250000 -0.000000
v 0.500000 0.250000 -0.000000
v -0.500000 -0.250000 0.000000
v -0.500000 0.250000 0.000000
v 0.500000 -0.500000 -0.500000
v 0.500000 0.000000 -0.500000
v -0.500000 -0.500000 -0.500000
v -0.500000 0.000000 -0.500000
vt 0.375000 0.000000
vt 0.625000 0.000000
vt 0.625000 0.250000
vt 0.375000 0.250000
vt 0.625000 0.500000
vt 0.375000 0.500000
vt 0.625000 0.750000
vt 0.375000 0.750000
vt 0.625000 1.000000
vt 0.375000 1.000000
vt 0.125000 0.500000
vt 0.125000 0.750000
vt 0.875000 0.500000
vt 0.875000 0.750000
vn 0.0000 0.0000 1.0000
vn -1.0000 0.0000 0.0000
vn -0.0000 0.0000 -1.0000
vn 1.0000 0.0000 0.0000
vn 0.0000 -0.8944 0.4472
vn -0.0000 0.8944 -0.4472
usemtl None
s off
f 25/43/18 26/44/18 28/45/18 27/46/18
f 27/46/19 28/45/19 32/47/19 31/48/19
f 31/48/20 32/47/20 30/49/20 29/50/20
f 29/50/21 30/49/21 26/51/21 25/52/21
f 27/53/22 31/48/22 29/50/22 25/54/22
f 32/47/23 28/55/23 26/56/23 30/49/23
